{
  "accessors": [
    {
      "bufferView": 2,
      "componentType": 5126,
      "count": 1371,
      "max": [
        7.475273132324219,
        10.311172485351563,
        0.2904624938964844
      ],
      "min": [
        -7.475273132324219,
        -8.371665954589844,
        -10.078857421875
      ],
      "type": "VEC3"
    },
    {
      "bufferView": 2,
      "byteOffset": 16452,
      "componentType": 5126,
      "count": 1371,
      "max": [
        0.9906243681907654,
        0.9990370273590088,
        0.9991700649261475
      ],
      "min": [
        -0.9906243681907654,
        -0.9931799173355103,
        -0.2148386836051941
      ],
      "type": "VEC3"
    },
    {
      "bufferView": 1,
      "componentType": 5126,
      "count": 1371,
      "max": [
        0.9369263052940369,
        0.9089096188545227
      ],
      "min": [
        0.06307368725538254,
        0.09365605562925339
      ],
      "type": "VEC2"
    },
    {
      "bufferView": 0,
      "componentType": 5125,
      "count": 7554,
      "type": "SCALAR"
    }
  ],
  "asset": {
    "extras": {
      "author": "Wael Tsar (https://sketchfab.com/wael.tsar)",
      "license": "CC-BY-4.0 (http://creativecommons.org/licenses/by/4.0/)",
      "source": "https://sketchfab.com/3d-models/face-mesh-wael-tsar-2a344a540fc2426c95ac6176b91164d7",
      "title": "Face Mesh - Wael Tsar"
    },
    "generator": "Sketchfab-12.66.0",
    "version": "2.0"
  },
  "bufferViews": [
    {
      "buffer": 0,
      "byteLength": 30216,
      "name": "floatBufferViews",
      "target": 34963
    },
    {
      "buffer": 0,
      "byteLength": 10968,
      "byteOffset": 30216,
      "byteStride": 8,
      "name": "floatBufferViews",
      "target": 34962
    },
    {
      "buffer": 0,
      "byteLength": 32904,
      "byteOffset": 41184,
      "byteStride": 12,
      "name": "floatBufferViews",
      "target": 34962
    }
  ],
  "buffers": [
    {
      "byteLength": 74088,
      "uri": "scene.bin"
    }
  ],
  "materials": [
    {
      "doubleSided": true,
      "name": "defaultMaterial",
      "pbrMetallicRoughness": {
        "baseColorFactor": [
          0.7241664348743744,
          0.38470950479779586,
          0.08273849461094326,
          1.0
        ],
        "metallicFactor": 0.0,
        "roughnessFactor": 0.6
      }
    }
  ],
  "meshes": [
    {
      "name": "faceMesh_defaultMaterial_0",
      "primitives": [
        {
          "attributes": {
            "NORMAL": 1,
            "POSITION": 0,
            "TEXCOORD_0": 2
          },
          "indices": 3,
          "material": 0,
          "mode": 4
        }
      ]
    }
  ],
  "nodes": [
    {
      "children": [
        1
      ],
      "matrix": [
        1.0,
        0.0,
        0.0,
        0.0,
        0.0,
        2.220446049250313e-16,
        -1.0,
        0.0,
        0.0,
        1.0,
        2.220446049250313e-16,
        0.0,
        0.0,
        0.0,
        0.0,
        1.0
      ],
      "name": "Sketchfab_model"
    },
    {
      "children": [
        2
      ],
      "matrix": [
        1.0,
        0.0,
        0.0,
        0.0,
        0.0,
        0.0,
        1.0,
        0.0,
        0.0,
        -1.0,
        0.0,
        0.0,
        0.0,
        0.0,
        0.0,
        1.0
      ],
      "name": "e53f54f9c2a34cf4ad30f6cb89c16d60.fbx"
    },
    {
      "children": [
        3
      ],
      "name": "RootNode"
    },
    {
      "children": [
        4
      ],
      "matrix": [
        1.0,
        0.0,
        0.0,
        0.0,
        0.0,
        1.0,
        0.0,
        0.0,
        0.0,
        0.0,
        1.0,
        0.0,
        0.0,
        -2.5243548967072378e-26,
        2.8272774843121063e-25,
        1.0
      ],
      "name": "faceMesh"
    },
    {
      "mesh": 0,
      "name": "faceMesh_defaultMaterial_0"
    }
  ],
  "scene": 0,
  "scenes": [
    {
      "name": "Sketchfab_Scene",
      "nodes": [
        0
      ]
    }
  ]
}
